<svg width="307" height="486" viewBox="0 0 307 486" fill="none" xmlns="http://www.w3.org/2000/svg">
<path d="M267.426 0.324219C278.819 0.324219 288.096 3.57943 295.258 10.0898C302.745 16.2747 306 27.668 305.023 44.2695C304.698 49.8034 303.396 60.2201 301.117 75.5195C298.839 90.4935 296.072 108.234 292.816 128.742C289.561 149.25 285.818 171.385 281.586 195.148C277.68 218.586 273.936 241.535 270.355 263.996H280.609C283.865 263.996 287.445 263.833 291.352 263.508C295.258 263.182 299.327 262.694 303.559 262.043C301.931 265.949 300.141 269.693 298.188 273.273C296.234 276.529 294.281 279.458 292.328 282.062C290.049 284.992 287.771 287.596 285.492 289.875C282.562 293.456 279.145 296.711 275.238 299.641C271.332 302.245 267.589 304.361 264.008 305.988C261.729 321.939 259.776 336.262 258.148 348.957C256.846 361.327 256.033 371.581 255.707 379.719C255.056 392.089 255.382 403.645 256.684 414.387C257.66 423.827 259.613 433.43 262.543 443.195C265.473 452.961 270.193 460.773 276.703 466.633L220.062 485.188C216.156 479.654 213.227 472.167 211.273 462.727C209.646 453.612 208.507 444.497 207.855 435.383C206.879 424.641 206.716 413.573 207.367 402.18C208.018 390.786 209.809 375.975 212.738 357.746C215.668 339.191 218.923 319.009 222.504 297.199C215.993 295.246 208.832 293.618 201.02 292.316C193.533 291.014 185.069 290.363 175.629 290.363C167.165 290.363 158.214 290.689 148.773 291.34C139.659 291.991 130.544 292.805 121.43 293.781C117.523 308.104 113.617 323.241 109.711 339.191C105.479 356.444 101.573 371.092 97.9922 383.137C94.737 395.507 91.4818 405.76 88.2266 413.898C85.2969 422.036 82.2044 428.547 78.9492 433.43C76.0195 438.312 72.7643 441.893 69.1836 444.172C65.2773 446.125 60.3945 447.915 54.5352 449.543C49.0013 451.171 42.0026 452.798 33.5391 454.426C25.0755 456.053 14.1706 457.355 0.824219 458.332C5.70703 452.473 9.9388 447.102 13.5195 442.219C17.1003 437.336 20.681 431.314 24.2617 424.152C27.8424 416.991 31.9115 407.714 36.4688 396.32C40.7005 385.253 46.2344 370.604 53.0703 352.375C56 344.888 58.9297 336.75 61.8594 327.961C65.1146 318.846 68.5326 309.569 72.1133 300.129C60.3945 301.757 50.4661 303.221 42.3281 304.523C34.1901 305.826 29.3073 306.802 27.6797 307.453C25.0755 307.779 22.9596 307.779 21.332 307.453C17.1003 306.802 14.8216 304.686 14.4961 301.105C14.8216 296.548 16.4492 293.456 19.3789 291.828C21.9831 290.201 26.0521 288.247 31.5859 285.969C34.1901 284.667 40.2122 282.388 49.6523 279.133C58.7669 275.552 69.9974 271.809 83.3438 267.902C88.2266 254.23 92.9466 240.721 97.5039 227.375C102.387 213.703 107.107 200.682 111.664 188.312C116.221 175.943 120.616 164.387 124.848 153.645C129.079 142.577 132.986 133.137 136.566 125.324C142.1 113.28 149.099 100.096 157.562 85.7734C166.352 71.125 176.28 57.4531 187.348 44.7578C198.741 32.0625 211.111 21.4831 224.457 13.0195C238.129 4.55599 252.452 0.324219 267.426 0.324219ZM262.055 101.887C265.635 87.2383 268.077 75.194 269.379 65.7539C270.681 56.3138 271.169 48.9896 270.844 43.7812C270.518 38.2474 269.379 34.5039 267.426 32.5508C265.798 30.2721 263.682 29.1328 261.078 29.1328C256.846 29.1328 251.638 30.7604 245.453 34.0156C239.268 37.2708 232.758 41.9909 225.922 48.1758C219.086 54.0352 212.25 61.5221 205.414 70.6367C198.904 79.4258 193.044 89.5169 187.836 100.91C180.349 117.837 171.885 138.671 162.445 163.41C153.005 187.824 142.751 219.074 131.684 257.16C138.194 256.184 144.542 255.37 150.727 254.719C157.237 254.068 163.585 253.742 169.77 253.742C180.837 253.742 191.417 254.23 201.508 255.207C211.599 255.858 220.876 256.672 229.34 257.648C232.27 242.023 235.199 226.724 238.129 211.75C241.384 196.451 244.477 181.965 247.406 168.293C250.336 154.621 252.94 142.089 255.219 130.695C257.823 119.302 260.102 109.699 262.055 101.887Z" fill="#6FCF97"/>
</svg>
