<svg width="380" height="360" viewBox="0 0 380 360" fill="none" xmlns="http://www.w3.org/2000/svg">
<path d="M19.2 359.2C6.4 359.2 -1.19209e-06 355.067 -1.19209e-06 346.8C-1.19209e-06 340.933 1.73333 336.667 5.2 334C4.4 336.667 3.99999 339.333 3.99999 342C3.99999 349.733 9.33333 353.6 20 353.6C38.1333 353.6 59.3333 344.533 83.6 326.4C78 323.467 73.2 320.267 69.2 316.8C46.8 334.4 30.4 343.2 20 343.2C16 343.2 14 342 14 339.6C14 337.733 15.0667 336.8 17.2 336.8C17.7333 336.8 18.5333 336.933 19.6 337.2C20.4 337.467 21.0667 337.6 21.6 337.6C31.7333 337.6 46.6667 329.867 66.4 314.4C57.6 305.867 53.2 297.2 53.2 288.4C53.2 269.733 70.4 253.067 104.8 238.4C111.733 235.467 119.333 232.933 127.6 230.8C136.133 228.4 145.333 226.267 155.2 224.4C158.667 219.867 161.867 215.6 164.8 211.6C167.733 207.333 170.267 203.333 172.4 199.6C171.6 192.667 171.2 186.933 171.2 182.4C171.2 165.6 174.267 157.2 180.4 157.2C184.133 157.2 187.067 161.467 189.2 170C191.867 166.267 195.067 161.067 198.8 154.4C202.533 147.467 206.667 139.067 211.2 129.2C218.133 114.8 224.667 100 230.8 84.8C236.933 69.6 242.667 54 248 38C249.067 35.0667 250.267 32.9333 251.6 31.6C251.867 31.8666 252 32.4 252 33.2C252 53.4666 233.467 98.1333 196.4 167.2C200.133 165.333 203.067 164.4 205.2 164.4C206.8 164.4 207.6 165.333 207.6 167.2C207.6 174.133 196.933 185.867 175.6 202.4C173.733 205.6 171.467 209.067 168.8 212.8C166.4 216.267 163.733 219.867 160.8 223.6C166.667 222.533 173.333 221.733 180.8 221.2C191.467 206.267 201.733 190.8 211.6 174.8C221.467 158.8 230.933 142.267 240 125.2C263.467 81.4667 275.2 48.6667 275.2 26.8C275.2 14 269.467 6.66665 258 4.8C255.6 4.26665 254.4 3.46665 254.4 2.39998C254.4 0.799984 255.867 -1.33514e-05 258.8 -1.33514e-05C269.2 -1.33514e-05 277.2 3.33332 282.8 9.99998C288.4 16.4 291.2 24.8 291.2 35.2C291.2 58.4 280.133 90.2667 258 130.8C249.733 146 240.667 161.067 230.8 176C220.933 190.667 210.533 205.2 199.6 219.6C204.133 219.067 210.533 218.667 218.8 218.4C227.067 217.867 236.933 217.333 248.4 216.8C256.133 216.533 261.733 216.4 265.2 216.4C268.667 216.133 270.267 216 270 216C271.6 216 272.4 216.4 272.4 217.2C272.4 219.867 269.733 221.467 264.4 222C259.333 222.267 251.733 222.8 241.6 223.6C231.733 224.133 222.667 224.8 214.4 225.6C206.4 226.133 199.333 226.8 193.2 227.6C159.067 270.267 126.4 303.2 95.2 326.4C102.133 329.867 114.667 333.2 132.8 336.4C135.2 336.667 136.4 337.467 136.4 338.8C136.4 340.133 135.067 340.8 132.4 340.8C120.667 340.8 106.8 337.067 90.8 329.6C63.0667 349.333 39.2 359.2 19.2 359.2ZM336 333.2C326.133 333.2 315.867 328.933 305.2 320.4C294.8 311.867 287.333 302.533 282.8 292.4C276.933 279.6 274 261.2 274 237.2C274 230 275.067 217.067 277.2 198.4C279.333 179.467 281.733 154.933 284.4 124.8L288 84.4C288.267 79.3333 289.2 76.8 290.8 76.8C293.733 76.8 295.2 79.7333 295.2 85.6V152.8C295.2 226.133 301.2 276.667 313.2 304.4C320.4 320.933 328.8 329.2 338.4 329.2C350.933 329.2 364.8 317.067 380 292.8C379.733 297.867 376.8 304.133 371.2 311.6C365.333 319.6 360.133 324.933 355.6 327.6C348.933 331.333 342.4 333.2 336 333.2ZM88.4 322.8C115.067 301.467 143.467 270.8 173.6 230.8C169.6 231.6 165.6 232.533 161.6 233.6C157.867 234.4 154.133 235.333 150.4 236.4C127.467 263.867 102.667 288.8 76 311.2C77.3333 313.333 79.0667 315.333 81.2 317.2C83.3333 319.067 85.7333 320.933 88.4 322.8ZM74 308.4C86 298.533 97.7333 287.733 109.2 276C120.933 264.267 132.533 251.733 144 238.4C126.667 244 111.6 251.2 98.8 260C80.6667 272 71.6 284.4 71.6 297.2C71.6 300.933 72.4 304.667 74 308.4Z" fill="white" fill-opacity="0.14"/>
</svg>
